<svg width="170" height="78" viewBox="0 0 170 78" fill="none" xmlns="http://www.w3.org/2000/svg">
<mask id="mask0_436_47" style="mask-type:luminance" maskUnits="userSpaceOnUse" x="36" y="15" width="10" height="9">
<path d="M36 15.5364H45.3333V23.9999H36V15.5364Z" fill="white"/>
</mask>
<g mask="url(#mask0_436_47)">
<path d="M43.3854 16.6925C42.5677 15.953 41.6042 15.5728 40.4687 15.5728C39.3542 15.5728 38.3646 15.9269 37.5469 16.6925C36.7292 17.4582 36.1146 18.4321 36.1146 19.703C36.1146 20.9998 36.7292 22.005 37.5469 22.7394C37.8958 23.0675 38.276 23.3019 38.7135 23.5103C39.2396 23.7446 39.8542 23.8644 40.4687 23.8644C41.0781 23.8644 41.6927 23.7446 42.2187 23.5103C42.6302 23.3332 43.0052 23.0675 43.3854 22.7394C44.2031 22.005 44.6146 20.9998 44.6146 19.703C44.6146 18.4321 44.2031 17.4321 43.3854 16.6925Z" fill="#84175A"/>
</g>
<path d="M103.938 23.5364C103.443 23.4218 102.943 23.3593 102.448 23.2708C101.953 23.2135 101.453 23.1562 100.958 23.0937C100.464 23.0676 100.021 23.0364 99.6719 23.0364C97.7136 23.0364 95.9323 23.2135 94.3281 23.5989C92.7188 23.9791 91.349 24.3645 90.1771 24.776V46.9062H96.724V29.026C97.0156 28.9374 97.4531 28.8489 98.0052 28.7916C98.5938 28.7291 99.0573 28.6718 99.4688 28.6718C100.375 28.6718 101.219 28.7603 102.01 28.9062C102.505 28.9947 102.943 29.1145 103.354 29.203L104.49 23.6874C104.318 23.6249 104.141 23.5676 103.938 23.5364Z" fill="#84175A"/>
<mask id="mask1_436_47" style="mask-type:luminance" maskUnits="userSpaceOnUse" x="1" y="22" width="34" height="26">
<path d="M1.64583 22.6667H34.6667V48.0001H1.64583V22.6667Z" fill="white"/>
</mask>
<g mask="url(#mask1_436_47)">
<path d="M33.224 29.3231C32.9583 28.021 32.4635 26.9012 31.7604 25.9585C31.0625 25.0106 30.125 24.2762 28.9271 23.7762C27.7292 23.245 26.2135 23.0054 24.3698 23.0054C23.349 23.0054 22.2083 23.1825 21.0156 23.5991C19.7865 23.9793 18.7031 24.5106 17.7708 25.1877C17.099 24.5991 16.25 24.0991 15.2031 23.6564C14.151 23.245 12.8073 23.0054 11.1406 23.0054C10.2917 23.0054 9.41666 23.0366 8.54166 23.1252C7.66666 23.1825 6.8177 23.3022 5.96874 23.4481C5.15104 23.5366 4.36458 23.6877 3.60416 23.8335C2.84374 24.0106 2.20312 24.1564 1.64583 24.3075V46.8752H8.1927V28.8491C8.59895 28.7918 9.03645 28.7293 9.47395 28.7033C9.91145 28.672 10.3542 28.6408 10.7604 28.6408C12.0729 28.6408 13.0104 29.0835 13.5625 29.9689C14.1198 30.8543 14.3802 32.3595 14.3802 34.5158V46.9064H20.9271V34.1304C20.9271 33.2762 20.8958 32.4793 20.8385 31.7085C20.7812 30.9429 20.6615 30.2345 20.4271 29.5575C20.8385 29.2918 21.3646 29.0835 21.9792 28.9064C22.5885 28.7293 23.0885 28.6408 23.4375 28.6408C24.75 28.6408 25.6875 29.0835 26.2396 29.9689C26.7969 30.8543 27.0573 32.3595 27.0573 34.5158V46.9064H33.6042V33.6877C33.6042 32.0627 33.4844 30.62 33.224 29.3231Z" fill="#84175A"/>
</g>
<path d="M63.9792 37.9636C63.7448 37.2292 63.3646 36.547 62.8385 35.9584C62.2864 35.3699 61.5573 34.7813 60.6198 34.2761C59.6875 33.7449 58.4896 33.2136 57.0573 32.6824C56.3542 32.4167 55.7708 32.1824 55.3021 31.948C54.8385 31.7084 54.4844 31.5053 54.2239 31.3282C53.9583 31.1511 53.7864 30.9428 53.6979 30.7345C53.6094 30.5313 53.5521 30.2917 53.5521 30.0261C53.5521 28.8803 54.5729 28.2865 56.6198 28.2865C57.7292 28.2865 58.7239 28.4063 59.625 28.6147C60.5312 28.8178 61.3489 29.0574 62.1094 29.323L63.276 24.1303C62.5208 23.8334 61.4948 23.5678 60.2135 23.3022C58.9271 23.0365 57.5833 22.9167 56.151 22.9167C53.3489 22.9167 51.125 23.5678 49.5208 24.8334C47.9167 26.1042 47.0989 27.8438 47.0989 30.0261C47.0989 31.1511 47.2448 32.1251 47.5937 32.922C47.9167 33.7188 48.3802 34.3959 48.9635 34.9845C49.5521 35.573 50.25 36.047 51.0989 36.4584C51.9479 36.8751 52.8489 37.2865 53.901 37.672C55.2187 38.172 56.2083 38.6147 56.8542 39.0261C57.4948 39.4428 57.8177 39.8855 57.8177 40.4115C57.8177 41.0938 57.5521 41.5626 57.0573 41.8022C56.5625 42.0365 55.7135 42.1563 54.5156 42.1563C53.375 42.1563 52.2083 42.0365 51.0417 41.7709C49.8698 41.5053 48.7344 41.1824 47.625 40.7397L46.5104 46.1095C47.0364 46.3438 47.9739 46.6407 49.3437 46.9949C50.7187 47.349 52.4114 47.5261 54.4583 47.5261C57.5833 47.5261 60.0052 46.9324 61.7292 45.7553C63.4531 44.573 64.3021 42.8334 64.3021 40.5313C64.3021 39.5574 64.1823 38.7032 63.9792 37.9636Z" fill="#84175A"/>
<path d="M84.8646 25.9271C82.9635 23.8906 80.3646 22.8906 77.0937 22.8906C75.6927 22.8906 74.3177 23.1563 72.9739 23.6875C71.6302 24.2187 70.4635 25.0104 69.4427 26.0469C68.4167 27.0781 67.5729 28.375 66.9583 29.9375C66.3177 31.5052 66.026 33.3021 66.026 35.3698C66.026 37.0781 66.2552 38.6719 66.7552 40.1458C67.2239 41.625 67.9792 42.9219 69.0052 43.9844C70.026 45.0781 71.2812 45.901 72.8281 46.5521C74.3802 47.1719 76.1875 47.4948 78.2604 47.4948C79.0781 47.4948 79.8958 47.4635 80.7135 47.349C81.5312 47.2604 82.2917 47.1406 83.026 47.0208C83.7552 46.9063 84.3958 46.7292 84.9792 46.5521C85.5625 46.375 86.0052 46.1979 86.3542 46.0208L85.2708 40.7396C84.5729 41.0312 83.6927 41.2708 82.6719 41.474C81.5052 41.7135 80.3385 41.8021 79.1406 41.8021C77.2708 41.8021 75.7812 41.3854 74.6406 40.5885C73.5312 39.7969 72.8906 38.7031 72.7396 37.3438H87.6094C87.6406 36.9896 87.6667 36.5781 87.6979 36.1354C87.7239 35.6927 87.7552 35.25 87.7552 34.8698C87.7239 30.9427 86.7604 27.9635 84.8646 25.9271ZM72.7135 32.8333C72.8021 32.2708 72.9479 31.7083 73.1198 31.1771C73.2969 30.6198 73.5885 30.1458 73.9375 29.7344C74.2917 29.3229 74.7292 28.9948 75.2552 28.7292C75.7812 28.4635 76.4219 28.349 77.151 28.349C77.9114 28.349 78.5521 28.4948 79.0521 28.7604C79.5781 29.026 79.9844 29.3802 80.3385 29.7917C80.6562 30.2031 80.9219 30.6771 81.0937 31.2083C81.2396 31.7396 81.3594 32.3021 81.3854 32.8594L72.7135 32.8333Z" fill="#84175A"/>
<path d="M123.099 25.9271C121.198 23.8906 118.599 22.8906 115.297 22.8906C114.859 22.8906 114.453 22.9167 114.042 22.9479C113.078 23.0677 112.115 23.3021 111.208 23.6875C109.865 24.2187 108.698 25.0104 107.677 26.0469C106.651 27.0781 105.807 28.375 105.193 29.9375C104.667 31.2083 104.375 32.6563 104.286 34.25C104.26 34.6042 104.26 34.9844 104.26 35.3698C104.26 37.0781 104.49 38.6719 104.99 40.1458C105.458 41.625 106.214 42.9219 107.24 43.9844C108.26 45.0781 109.516 45.901 111.062 46.5521C112.615 47.1719 114.422 47.4948 116.495 47.4948C117.312 47.4948 118.13 47.4635 118.948 47.349C119.766 47.2604 120.526 47.1406 121.26 47.0208C121.99 46.9063 122.63 46.7292 123.214 46.5521C123.797 46.375 124.266 46.1979 124.615 46.0208L123.536 40.7396C122.833 41.0312 121.958 41.2708 120.906 41.474C119.74 41.7135 118.573 41.8021 117.375 41.8021C115.505 41.8021 114.016 41.3854 112.906 40.5885C111.792 39.7969 111.151 38.7031 111.005 37.3438H125.875C125.901 36.9896 125.932 36.5781 125.958 36.1354C125.99 35.6927 126.021 35.25 126.021 34.8698C125.958 30.9427 124.995 27.9635 123.099 25.9271ZM110.948 32.8333C111.036 32.2708 111.182 31.7083 111.354 31.1771C111.562 30.6198 111.823 30.1458 112.172 29.7344C112.526 29.3229 112.964 28.9948 113.49 28.7292C113.693 28.6146 113.927 28.5521 114.187 28.4948C114.542 28.4063 114.948 28.375 115.359 28.375C116.115 28.375 116.76 28.526 117.255 28.7917C117.781 29.0573 118.193 29.4115 118.542 29.8229C118.891 30.2344 119.125 30.7083 119.302 31.2396C119.448 31.7708 119.562 32.3281 119.594 32.8906L110.948 32.8333Z" fill="#84175A"/>
<path d="M149.62 30.1146C149.063 28.6146 148.276 27.3125 147.281 26.25C146.292 25.1875 145.094 24.3646 143.693 23.776C142.286 23.1823 140.771 22.8906 139.104 22.8906C137.469 22.8906 135.948 23.1823 134.547 23.776C133.146 24.3646 131.948 25.1875 130.953 26.25C129.964 27.3125 129.146 28.6146 128.589 30.1146C128.036 31.6198 127.745 33.3021 127.745 35.1302C127.745 36.9635 128.036 38.6458 128.589 40.1771C129.146 41.7135 129.932 43.0104 130.927 44.0729C131.917 45.1354 133.115 45.9896 134.521 46.5781C135.922 47.1719 137.469 47.4635 139.161 47.4635C140.885 47.4635 142.464 47.1719 143.839 46.5781C145.208 45.9896 146.438 45.1667 147.427 44.0729C148.422 42.9792 149.182 41.6823 149.708 40.1771C150.234 38.6458 150.495 36.9635 150.495 35.1302C150.469 33.3021 150.177 31.6198 149.62 30.1146ZM142.552 40C141.734 41.2083 140.594 41.8021 139.104 41.8021C137.615 41.8021 136.448 41.2083 135.63 40C134.813 38.7917 134.401 37.1667 134.401 35.1302C134.401 33.099 134.813 31.474 135.63 30.3229C136.448 29.1719 137.615 28.5521 139.104 28.5521C140.594 28.5521 141.76 29.1458 142.552 30.3229C143.37 31.5052 143.75 33.099 143.75 35.1302C143.75 37.1667 143.37 38.8229 142.552 40Z" fill="#84175A"/>
<mask id="mask2_436_47" style="mask-type:luminance" maskUnits="userSpaceOnUse" x="152" y="22" width="16" height="26">
<path d="M152 22.6667H167.234V48.0001H152V22.6667Z" fill="white"/>
</mask>
<g mask="url(#mask2_436_47)">
<path d="M166.646 23.5366C166.151 23.422 165.656 23.3595 165.156 23.271C164.661 23.2137 164.167 23.1564 163.667 23.0939C163.172 23.0679 162.734 23.0366 162.385 23.0366C160.427 23.0366 158.646 23.2137 157.036 23.5991C155.432 23.9793 154.057 24.3647 152.891 24.7762V46.9064H159.432V29.0262C159.724 28.9377 160.161 28.8491 160.719 28.7918C161.302 28.7293 161.771 28.672 162.177 28.672C163.083 28.672 163.932 28.7606 164.719 28.9064C165.219 28.995 165.656 29.1147 166.062 29.2033L167.203 23.6877C167.057 23.6252 166.854 23.5679 166.646 23.5366Z" fill="#84175A"/>
</g>
<path d="M43.5312 26.1926C42.6302 26.6041 41.6354 26.7812 40.5521 26.7812C39.474 26.7812 38.4792 26.578 37.5729 26.1926C37.4271 26.1353 37.2813 26.0468 37.1094 25.9583V46.8749H43.651V26.1353C43.6198 26.1353 43.5937 26.1614 43.5312 26.1926Z" fill="#84175A"/>
<mask id="mask3_436_47" style="mask-type:luminance" maskUnits="userSpaceOnUse" x="1" y="53" width="7" height="7">
<path d="M1.64583 53.3333H8V59.9999H1.64583V53.3333Z" fill="white"/>
</mask>
<g mask="url(#mask3_436_47)">
<path d="M5.70833 59.5051L5.23958 57.9687H3.34374L2.875 59.5051H1.8802L3.78125 53.6614H4.89062L6.72916 59.5051H5.70833ZM4.33333 54.6353C4.21874 55.078 3.72395 56.8176 3.60416 57.1405H5.03645C4.94791 57.026 4.36458 54.8697 4.33333 54.6353Z" fill="black"/>
</g>
<mask id="mask4_436_47" style="mask-type:luminance" maskUnits="userSpaceOnUse" x="8" y="53" width="6" height="10">
<path d="M8 53.3333H13.3333V62.1353H8V53.3333Z" fill="white"/>
</mask>
<g mask="url(#mask4_436_47)">
<path d="M11.1979 60.328H11.1094L11.026 60.5936C11.4896 60.6509 11.6667 60.9478 11.6667 61.3019C11.6667 61.7134 11.3177 62.0988 10.7031 62.0988C10.4375 62.0988 10.1198 61.979 9.91146 61.8644L10.1458 61.3592C10.3802 61.479 10.5 61.5103 10.6719 61.5103C10.8177 61.5103 10.9635 61.3905 10.9635 61.2707C10.9635 61.1248 10.849 61.0363 10.6719 61.0363C10.5833 61.0363 10.4688 61.0675 10.4375 61.0936L10.3542 60.9478L10.526 60.2707C9.21354 59.9165 8.42188 58.7082 8.42188 57.0519C8.42188 56.2863 8.56771 55.6353 8.86458 55.078C9.35938 54.1353 10.2344 53.5728 11.2552 53.5728C11.8698 53.5728 12.4844 53.7498 12.8646 54.0728L12.3698 54.7811C12.0156 54.5155 11.6667 54.4269 11.2552 54.4269C10.7031 54.4269 10.2656 54.6925 10 55.1353C9.73958 55.5467 9.65104 56.1405 9.65104 56.9061C9.65104 57.703 9.73958 58.203 9.91146 58.5884C10.2344 59.2394 10.7917 59.4738 11.3437 59.4738C11.7552 59.4738 12.1354 59.354 12.5156 59.0623L13.0104 59.7707C12.4844 60.1248 11.9271 60.328 11.1979 60.328Z" fill="black"/>
</g>
<path d="M19.2604 60.2136L18.7344 58.5001H16.6302L16.1042 60.2136H14.9948L17.1302 53.6615H18.3854L20.4583 60.2136H19.2604ZM18.2083 53.1876C17.6562 53.1876 17.5364 52.8074 16.9844 52.8074C16.6927 52.8074 16.5729 52.9532 16.3698 53.1615L16.0469 52.5678C16.3698 52.1876 16.6302 51.948 17.1562 51.948C17.7135 51.948 17.8281 52.3334 18.3854 52.3334C18.6771 52.3334 18.8229 52.1876 19 51.9792L19.3177 52.5678C19.026 52.9532 18.7656 53.1876 18.2083 53.1876ZM17.7396 54.7553C17.5937 55.224 17.0417 57.2032 16.9219 57.5834H18.5C18.4427 57.4376 17.7708 55.0209 17.7396 54.7553Z" fill="black"/>
<path d="M25.2187 60.3282C23.3802 60.3282 22.474 58.8855 22.474 56.9636C22.474 54.8126 23.5521 53.6042 25.1615 53.6042C26.974 53.6042 27.849 55.0782 27.849 56.9636C27.875 59.0001 26.9115 60.3282 25.2187 60.3282ZM25.1615 54.4272C24.0781 54.4272 23.6719 55.3126 23.6719 56.8751C23.6719 58.5574 24.0781 59.5053 25.1875 59.5053C26.1562 59.5053 26.651 58.797 26.651 57.0261C26.651 55.4324 26.3281 54.4272 25.1615 54.4272Z" fill="black"/>
<path d="M36.3177 60.3282C35.4739 60.3282 34.7708 60.0053 34.276 59.3855C33.776 58.797 33.5417 58.0001 33.5417 57.0522C33.5417 56.2553 33.6875 55.6095 33.9844 55.0782C34.4792 54.1355 35.3542 53.573 36.375 53.573C36.9896 53.573 37.6042 53.7501 37.9844 54.073L37.4844 54.7813C37.1354 54.5157 36.7864 54.4272 36.375 54.4272C35.8229 54.4272 35.3542 54.724 35.0937 55.224C34.8594 55.6355 34.7708 56.1667 34.7708 56.9376C34.7708 57.7345 34.8594 58.2032 35.0312 58.5574C35.3229 59.1772 35.8489 59.474 36.4635 59.474C36.9323 59.474 37.2552 59.3542 37.6354 59.0626L38.1302 59.7397C37.5729 60.1251 37.0208 60.3282 36.3177 60.3282Z" fill="black"/>
<path d="M42.8906 60.3282C41.0521 60.3282 40.1458 58.8855 40.1458 56.9636C40.1458 54.8126 41.224 53.6042 42.8333 53.6042C44.6406 53.6042 45.5208 55.0782 45.5208 56.9636C45.5469 59.0001 44.5833 60.3282 42.8906 60.3282ZM42.8333 54.4272C41.75 54.4272 41.3437 55.3126 41.3437 56.8751C41.3437 58.5574 41.75 59.5053 42.8594 59.5053C43.8229 59.5053 44.3229 58.797 44.3229 57.0261C44.3229 55.4324 44 54.4272 42.8333 54.4272Z" fill="black"/>
<path d="M53.6406 60.2135L53.349 56.1666C53.3177 55.7551 53.2865 55.2239 53.2865 55.0468C53.2292 55.2551 53.1406 55.6666 53.026 56.078L51.8594 60.2135H50.9531L49.8698 56.2551C49.7552 55.8124 49.6354 55.2239 49.5781 55.0208C49.5781 55.2239 49.5521 55.8749 49.5208 56.2551L49.2292 60.2135H48.1771L48.7604 53.6926H50.1927L51.1875 57.3801C51.3333 57.9374 51.3906 58.2916 51.4219 58.4999C51.4479 58.2916 51.5365 57.8489 51.651 57.4062L52.6771 53.6926H54.1094L54.6927 60.2135H53.6406Z" fill="black"/>
<path d="M59.8594 60.328C58.1667 60.328 57.6406 59.4426 57.6406 58.3801V53.6614H58.724V58.0572C58.724 59.0624 59.0729 59.3853 59.8594 59.3853C60.651 59.3853 61.0312 58.9114 61.0312 58.0572V53.6614H62.1094V58.3541C62.1094 59.5937 61.2917 60.328 59.8594 60.328Z" fill="black"/>
<path d="M70.4635 60.2135L70.1719 56.1666C70.1406 55.7551 70.1146 55.2239 70.1146 55.0468C70.0573 55.2551 69.9687 55.6666 69.849 56.078L68.6823 60.2135H67.776L66.6979 56.2551C66.5781 55.8124 66.4635 55.2239 66.4062 55.0208C66.4062 55.2239 66.375 55.8749 66.3438 56.2551L66.0521 60.2135H65.0312L65.6146 53.6926H67.0469L68.0417 57.3801C68.1875 57.9374 68.2448 58.2916 68.2708 58.4999C68.3021 58.2916 68.3906 57.8489 68.5052 57.4062L69.5312 53.6926H70.9583L71.5469 60.2135H70.4635Z" fill="black"/>
<mask id="mask5_436_47" style="mask-type:luminance" maskUnits="userSpaceOnUse" x="80" y="53" width="4" height="10">
<path d="M80 53.3333H84V62.1353H80V53.3333Z" fill="white"/>
</mask>
<g mask="url(#mask5_436_47)">
<path d="M82.6458 60.828C82.3802 61.2135 81.9427 61.4791 81.5625 61.6249L81.0677 61.0364C81.3854 60.8593 81.6823 60.5624 81.8281 60.302C81.9427 60.0624 81.974 59.7968 81.974 59.0885V53.6614H83.0521V58.9999C83.0261 60.0937 82.9375 60.4478 82.6458 60.828Z" fill="black"/>
</g>
<path d="M88.3698 60.328C86.6771 60.328 86.151 59.4426 86.151 58.3801V53.6614H87.2292V58.0572C87.2292 59.0624 87.5781 59.3853 88.3698 59.3853C89.1562 59.3853 89.5364 58.9114 89.5364 58.0572V53.6614H90.6198V58.3541C90.6198 59.5937 89.8021 60.328 88.3698 60.328Z" fill="black"/>
<path d="M95.526 60.3282C94.7969 60.3282 94.0365 60.1251 93.3906 59.7397L93.8021 58.9115C94.3854 59.2397 94.8802 59.4428 95.5521 59.4428C96.3438 59.4428 96.8385 59.0626 96.8385 58.4115C96.8385 57.9376 96.5469 57.6147 95.875 57.4376L95.1719 57.2292C94.5885 57.0522 94.151 56.8178 93.9167 56.4324C93.7448 56.1667 93.6562 55.8438 93.6562 55.4897C93.6562 54.3386 94.5625 53.5417 95.8438 53.5417C96.5781 53.5417 97.3333 53.7501 97.8906 54.1615L97.3958 54.9324C96.8125 54.5782 96.3698 54.4272 95.875 54.4272C95.2344 54.4272 94.8229 54.7813 94.8229 55.3126C94.8229 55.724 95.0573 55.9324 95.6979 56.1095L96.4583 56.3438C97.3958 56.6095 98.0365 57.2292 98.0365 58.2032C98.0677 59.3282 97.1875 60.3282 95.526 60.3282Z" fill="black"/>
<path d="M104.344 54.578H102.708V60.2135H101.63V54.578H99.9948V53.6614H104.464L104.344 54.578Z" fill="black"/>
<path d="M109.839 60.2135L109.312 58.4999H107.208L106.682 60.2135H105.573L107.703 53.6614H108.958L111.036 60.2135H109.839ZM108.292 54.7551C108.141 55.2239 107.589 57.203 107.469 57.5833H109.047C108.99 57.4374 108.349 55.0208 108.292 54.7551Z" fill="black"/>
<path d="M123.156 60.3022C122.25 60.3022 121.552 60.0053 121.052 59.3855C120.557 58.7657 120.323 58.0261 120.323 56.9949C120.323 55.6667 120.734 54.724 121.552 54.1042C122.016 53.7501 122.516 53.6042 123.156 53.6042C123.885 53.6042 124.557 53.8386 125.083 54.2813L124.531 54.9584C124.089 54.6042 123.651 54.4584 123.156 54.4584C121.958 54.4584 121.521 55.5209 121.521 57.0522C121.521 57.9688 121.698 58.6199 121.99 58.974C122.25 59.2657 122.719 59.474 123.214 59.474C123.568 59.474 123.828 59.3855 124.089 59.2657V57.5574H122.979L122.833 56.672H125.172V59.7397C124.589 60.0938 123.885 60.3022 123.156 60.3022Z" fill="black"/>
<path d="M131.568 60.2135H128.266V53.6926H129.38V59.328H131.771L131.568 60.2135Z" fill="black"/>
<path d="M136.302 60.3282C134.458 60.3282 133.557 58.8855 133.557 56.9636C133.557 54.8126 134.635 53.6042 136.24 53.6042C138.052 53.6042 138.927 55.0782 138.927 56.9636C138.958 59.0001 137.964 60.3282 136.302 60.3282ZM136.24 54.4272C135.161 54.4272 134.75 55.3126 134.75 56.8751C134.75 58.5574 135.161 59.5053 136.271 59.5053C137.234 59.5053 137.729 58.797 137.729 57.0261C137.729 55.4324 137.411 54.4272 136.24 54.4272Z" fill="black"/>
<path d="M143.693 60.2135H141.823V53.6926H143.542C144.51 53.6926 144.859 53.7499 145.24 54.0155C145.734 54.3385 145.969 54.7551 145.969 55.3124C145.969 56.0208 145.589 56.5208 144.859 56.7291C145.938 56.9947 146.229 57.7343 146.229 58.3801C146.229 59.651 145.328 60.2135 143.693 60.2135ZM144.302 54.6353C144.156 54.578 144.01 54.5468 143.693 54.5468H142.87V56.3176H143.776C144.156 56.3176 144.365 56.2864 144.568 56.078C144.771 55.8749 144.828 55.6093 144.828 55.4322C144.828 55.078 144.625 54.7551 144.302 54.6353ZM144.422 57.2916C144.276 57.2291 144.13 57.2291 143.839 57.2291H142.901V59.2968H143.865C144.682 59.2968 145.031 58.8228 145.031 58.2343C145.031 57.7916 144.802 57.4062 144.422 57.2916Z" fill="black"/>
<path d="M152.542 60.2135L152.016 58.4999H149.911L149.385 60.2135H148.276L150.406 53.6614H151.667L153.74 60.2135H152.542ZM151.021 54.7551C150.875 55.2239 150.323 57.203 150.203 57.5833H151.781C151.724 57.4374 151.052 55.0208 151.021 54.7551Z" fill="black"/>
<path d="M159.432 60.2135H156.135V53.6926H157.245V59.328H159.641L159.432 60.2135Z" fill="black"/>
</svg>
